<svg width="741" height="264" viewBox="0 0 741 264" fill="none" xmlns="http://www.w3.org/2000/svg">
<mask id="path-1-outside-1" maskUnits="userSpaceOnUse" x="0.2052" y="0.335999" width="741" height="263" fill="black">
<rect fill="white" x="0.2052" y="0.335999" width="741" height="263"/>
<path d="M145.348 107L104.02 61.208V107H90.9161V6.632H104.02V53.144L145.492 6.632H162.052L116.548 56.888L162.484 107H145.348Z"/>
<path d="M236.447 84.68H192.671L184.607 107H170.783L207.071 7.208H222.191L258.335 107H244.511L236.447 84.68ZM232.703 74.024L214.559 23.336L196.415 74.024H232.703Z"/>
<path d="M375.958 7.352V107H362.854V32.696L329.734 107H320.518L287.255 32.552V107H274.151V7.352H288.263L325.127 89.72L361.991 7.352H375.958Z"/>
<path d="M465.286 36.008C465.286 44.36 462.406 51.32 456.646 56.888C450.982 62.36 442.294 65.096 430.582 65.096H411.286V107H398.182V6.632H430.582C441.91 6.632 450.502 9.368 456.358 14.84C462.31 20.312 465.286 27.368 465.286 36.008ZM430.582 54.296C437.878 54.296 443.254 52.712 446.71 49.544C450.166 46.376 451.894 41.864 451.894 36.008C451.894 23.624 444.79 17.432 430.582 17.432H411.286V54.296H430.582Z"/>
<path d="M494.388 6.632V70.136C494.388 79.064 496.548 85.688 500.868 90.008C505.284 94.328 511.38 96.488 519.156 96.488C526.836 96.488 532.836 94.328 537.156 90.008C541.572 85.688 543.78 79.064 543.78 70.136V6.632H556.884V69.992C556.884 78.344 555.204 85.4 551.844 91.16C548.484 96.824 543.924 101.048 538.164 103.832C532.5 106.616 526.116 108.008 519.012 108.008C511.908 108.008 505.476 106.616 499.716 103.832C494.052 101.048 489.54 96.824 486.18 91.16C482.916 85.4 481.284 78.344 481.284 69.992V6.632H494.388Z"/>
<path d="M610.568 108.008C603.944 108.008 597.992 106.856 592.712 104.552C587.528 102.152 583.448 98.888 580.472 94.76C577.496 90.536 575.96 85.688 575.864 80.216H589.832C590.312 84.92 592.232 88.904 595.592 92.168C599.048 95.336 604.04 96.92 610.568 96.92C616.808 96.92 621.704 95.384 625.256 92.312C628.904 89.144 630.728 85.112 630.728 80.216C630.728 76.376 629.672 73.256 627.56 70.856C625.448 68.456 622.808 66.632 619.64 65.384C616.472 64.136 612.2 62.792 606.824 61.352C600.2 59.624 594.872 57.896 590.84 56.168C586.904 54.44 583.496 51.752 580.616 48.104C577.832 44.36 576.44 39.368 576.44 33.128C576.44 27.656 577.832 22.808 580.616 18.584C583.4 14.36 587.288 11.096 592.28 8.792C597.368 6.488 603.176 5.336 609.704 5.336C619.112 5.336 626.792 7.688 632.744 12.392C638.792 17.096 642.2 23.336 642.968 31.112H628.568C628.088 27.272 626.072 23.912 622.52 21.032C618.968 18.056 614.264 16.568 608.408 16.568C602.936 16.568 598.472 18.008 595.016 20.888C591.56 23.672 589.832 27.608 589.832 32.696C589.832 36.344 590.84 39.32 592.856 41.624C594.968 43.928 597.512 45.704 600.488 46.952C603.56 48.104 607.832 49.448 613.304 50.984C619.928 52.808 625.256 54.632 629.288 56.456C633.32 58.184 636.776 60.92 639.656 64.664C642.536 68.312 643.976 73.304 643.976 79.64C643.976 84.536 642.68 89.144 640.088 93.464C637.496 97.784 633.656 101.288 628.568 103.976C623.48 106.664 617.48 108.008 610.568 108.008Z"/>
<path d="M18.3092 156.632V257H5.2052V156.632H18.3092Z"/>
<path d="M119.555 257H106.451L53.7467 177.08V257H40.6427V156.488H53.7467L106.451 236.264V156.488H119.555V257Z"/>
<path d="M173.141 156.632C184.085 156.632 193.541 158.696 201.509 162.824C209.573 166.856 215.717 172.664 219.941 180.248C224.261 187.832 226.421 196.76 226.421 207.032C226.421 217.304 224.261 226.232 219.941 233.816C215.717 241.304 209.573 247.064 201.509 251.096C193.541 255.032 184.085 257 173.141 257H141.893V156.632H173.141ZM173.141 246.2C186.101 246.2 195.989 242.792 202.805 235.976C209.621 229.064 213.029 219.416 213.029 207.032C213.029 194.552 209.573 184.808 202.661 177.8C195.845 170.792 186.005 167.288 173.141 167.288H154.997V246.2H173.141Z"/>
<path d="M289.209 258.008C279.897 258.008 271.401 255.848 263.721 251.528C256.041 247.112 249.945 241.016 245.433 233.24C241.017 225.368 238.809 216.536 238.809 206.744C238.809 196.952 241.017 188.168 245.433 180.392C249.945 172.52 256.041 166.424 263.721 162.104C271.401 157.688 279.897 155.48 289.209 155.48C298.617 155.48 307.161 157.688 314.841 162.104C322.521 166.424 328.569 172.472 332.985 180.248C337.401 188.024 339.609 196.856 339.609 206.744C339.609 216.632 337.401 225.464 332.985 233.24C328.569 241.016 322.521 247.112 314.841 251.528C307.161 255.848 298.617 258.008 289.209 258.008ZM289.209 246.632C296.217 246.632 302.505 245 308.073 241.736C313.737 238.472 318.153 233.816 321.321 227.768C324.585 221.72 326.217 214.712 326.217 206.744C326.217 198.68 324.585 191.672 321.321 185.72C318.153 179.672 313.785 175.016 308.217 171.752C302.649 168.488 296.313 166.856 289.209 166.856C282.105 166.856 275.769 168.488 270.201 171.752C264.633 175.016 260.217 179.672 256.953 185.72C253.785 191.672 252.201 198.68 252.201 206.744C252.201 214.712 253.785 221.72 256.953 227.768C260.217 233.816 264.633 238.472 270.201 241.736C275.865 245 282.201 246.632 289.209 246.632Z"/>
<path d="M435.82 257H422.716L370.012 177.08V257H356.908V156.488H370.012L422.716 236.264V156.488H435.82V257Z"/>
<path d="M471.262 167.288V200.84H507.838V211.64H471.262V246.2H512.158V257H458.158V156.488H512.158V167.288H471.262Z"/>
<path d="M563.81 258.008C557.186 258.008 551.234 256.856 545.954 254.552C540.77 252.152 536.69 248.888 533.714 244.76C530.738 240.536 529.202 235.688 529.106 230.216H543.074C543.554 234.92 545.474 238.904 548.834 242.168C552.29 245.336 557.282 246.92 563.81 246.92C570.05 246.92 574.946 245.384 578.498 242.312C582.146 239.144 583.97 235.112 583.97 230.216C583.97 226.376 582.914 223.256 580.802 220.856C578.69 218.456 576.05 216.632 572.882 215.384C569.714 214.136 565.442 212.792 560.066 211.352C553.442 209.624 548.114 207.896 544.082 206.168C540.146 204.44 536.738 201.752 533.858 198.104C531.074 194.36 529.682 189.368 529.682 183.128C529.682 177.656 531.074 172.808 533.858 168.584C536.642 164.36 540.53 161.096 545.522 158.792C550.61 156.488 556.418 155.336 562.946 155.336C572.354 155.336 580.034 157.688 585.986 162.392C592.034 167.096 595.442 173.336 596.21 181.112H581.81C581.33 177.272 579.314 173.912 575.762 171.032C572.21 168.056 567.506 166.568 561.65 166.568C556.178 166.568 551.714 168.008 548.258 170.888C544.802 173.672 543.074 177.608 543.074 182.696C543.074 186.344 544.082 189.32 546.098 191.624C548.21 193.928 550.754 195.704 553.73 196.952C556.802 198.104 561.074 199.448 566.546 200.984C573.17 202.808 578.498 204.632 582.53 206.456C586.562 208.184 590.018 210.92 592.898 214.664C595.778 218.312 597.218 223.304 597.218 229.64C597.218 234.536 595.922 239.144 593.33 243.464C590.738 247.784 586.898 251.288 581.81 253.976C576.722 256.664 570.722 258.008 563.81 258.008Z"/>
<path d="M629.606 156.632V257H616.502V156.632H629.606Z"/>
<path d="M711.268 234.68H667.492L659.428 257H645.604L681.892 157.208H697.012L733.156 257H719.332L711.268 234.68ZM707.524 224.024L689.38 173.336L671.236 224.024H707.524Z"/>
</mask>
<path d="M145.348 107L104.02 61.208V107H90.9161V6.632H104.02V53.144L145.492 6.632H162.052L116.548 56.888L162.484 107H145.348Z" stroke="#4F6FB1" stroke-width="10" mask="url(#path-1-outside-1)"/>
<path d="M236.447 84.68H192.671L184.607 107H170.783L207.071 7.208H222.191L258.335 107H244.511L236.447 84.68ZM232.703 74.024L214.559 23.336L196.415 74.024H232.703Z" stroke="#4F6FB1" stroke-width="10" mask="url(#path-1-outside-1)"/>
<path d="M375.958 7.352V107H362.854V32.696L329.734 107H320.518L287.255 32.552V107H274.151V7.352H288.263L325.127 89.72L361.991 7.352H375.958Z" stroke="#4F6FB1" stroke-width="10" mask="url(#path-1-outside-1)"/>
<path d="M465.286 36.008C465.286 44.36 462.406 51.32 456.646 56.888C450.982 62.36 442.294 65.096 430.582 65.096H411.286V107H398.182V6.632H430.582C441.91 6.632 450.502 9.368 456.358 14.84C462.31 20.312 465.286 27.368 465.286 36.008ZM430.582 54.296C437.878 54.296 443.254 52.712 446.71 49.544C450.166 46.376 451.894 41.864 451.894 36.008C451.894 23.624 444.79 17.432 430.582 17.432H411.286V54.296H430.582Z" stroke="#4F6FB1" stroke-width="10" mask="url(#path-1-outside-1)"/>
<path d="M494.388 6.632V70.136C494.388 79.064 496.548 85.688 500.868 90.008C505.284 94.328 511.38 96.488 519.156 96.488C526.836 96.488 532.836 94.328 537.156 90.008C541.572 85.688 543.78 79.064 543.78 70.136V6.632H556.884V69.992C556.884 78.344 555.204 85.4 551.844 91.16C548.484 96.824 543.924 101.048 538.164 103.832C532.5 106.616 526.116 108.008 519.012 108.008C511.908 108.008 505.476 106.616 499.716 103.832C494.052 101.048 489.54 96.824 486.18 91.16C482.916 85.4 481.284 78.344 481.284 69.992V6.632H494.388Z" stroke="#4F6FB1" stroke-width="10" mask="url(#path-1-outside-1)"/>
<path d="M610.568 108.008C603.944 108.008 597.992 106.856 592.712 104.552C587.528 102.152 583.448 98.888 580.472 94.76C577.496 90.536 575.96 85.688 575.864 80.216H589.832C590.312 84.92 592.232 88.904 595.592 92.168C599.048 95.336 604.04 96.92 610.568 96.92C616.808 96.92 621.704 95.384 625.256 92.312C628.904 89.144 630.728 85.112 630.728 80.216C630.728 76.376 629.672 73.256 627.56 70.856C625.448 68.456 622.808 66.632 619.64 65.384C616.472 64.136 612.2 62.792 606.824 61.352C600.2 59.624 594.872 57.896 590.84 56.168C586.904 54.44 583.496 51.752 580.616 48.104C577.832 44.36 576.44 39.368 576.44 33.128C576.44 27.656 577.832 22.808 580.616 18.584C583.4 14.36 587.288 11.096 592.28 8.792C597.368 6.488 603.176 5.336 609.704 5.336C619.112 5.336 626.792 7.688 632.744 12.392C638.792 17.096 642.2 23.336 642.968 31.112H628.568C628.088 27.272 626.072 23.912 622.52 21.032C618.968 18.056 614.264 16.568 608.408 16.568C602.936 16.568 598.472 18.008 595.016 20.888C591.56 23.672 589.832 27.608 589.832 32.696C589.832 36.344 590.84 39.32 592.856 41.624C594.968 43.928 597.512 45.704 600.488 46.952C603.56 48.104 607.832 49.448 613.304 50.984C619.928 52.808 625.256 54.632 629.288 56.456C633.32 58.184 636.776 60.92 639.656 64.664C642.536 68.312 643.976 73.304 643.976 79.64C643.976 84.536 642.68 89.144 640.088 93.464C637.496 97.784 633.656 101.288 628.568 103.976C623.48 106.664 617.48 108.008 610.568 108.008Z" stroke="#4F6FB1" stroke-width="10" mask="url(#path-1-outside-1)"/>
<path d="M18.3092 156.632V257H5.2052V156.632H18.3092Z" stroke="#4F6FB1" stroke-width="10" mask="url(#path-1-outside-1)"/>
<path d="M119.555 257H106.451L53.7467 177.08V257H40.6427V156.488H53.7467L106.451 236.264V156.488H119.555V257Z" stroke="#4F6FB1" stroke-width="10" mask="url(#path-1-outside-1)"/>
<path d="M173.141 156.632C184.085 156.632 193.541 158.696 201.509 162.824C209.573 166.856 215.717 172.664 219.941 180.248C224.261 187.832 226.421 196.76 226.421 207.032C226.421 217.304 224.261 226.232 219.941 233.816C215.717 241.304 209.573 247.064 201.509 251.096C193.541 255.032 184.085 257 173.141 257H141.893V156.632H173.141ZM173.141 246.2C186.101 246.2 195.989 242.792 202.805 235.976C209.621 229.064 213.029 219.416 213.029 207.032C213.029 194.552 209.573 184.808 202.661 177.8C195.845 170.792 186.005 167.288 173.141 167.288H154.997V246.2H173.141Z" stroke="#4F6FB1" stroke-width="10" mask="url(#path-1-outside-1)"/>
<path d="M289.209 258.008C279.897 258.008 271.401 255.848 263.721 251.528C256.041 247.112 249.945 241.016 245.433 233.24C241.017 225.368 238.809 216.536 238.809 206.744C238.809 196.952 241.017 188.168 245.433 180.392C249.945 172.52 256.041 166.424 263.721 162.104C271.401 157.688 279.897 155.48 289.209 155.48C298.617 155.48 307.161 157.688 314.841 162.104C322.521 166.424 328.569 172.472 332.985 180.248C337.401 188.024 339.609 196.856 339.609 206.744C339.609 216.632 337.401 225.464 332.985 233.24C328.569 241.016 322.521 247.112 314.841 251.528C307.161 255.848 298.617 258.008 289.209 258.008ZM289.209 246.632C296.217 246.632 302.505 245 308.073 241.736C313.737 238.472 318.153 233.816 321.321 227.768C324.585 221.72 326.217 214.712 326.217 206.744C326.217 198.68 324.585 191.672 321.321 185.72C318.153 179.672 313.785 175.016 308.217 171.752C302.649 168.488 296.313 166.856 289.209 166.856C282.105 166.856 275.769 168.488 270.201 171.752C264.633 175.016 260.217 179.672 256.953 185.72C253.785 191.672 252.201 198.68 252.201 206.744C252.201 214.712 253.785 221.72 256.953 227.768C260.217 233.816 264.633 238.472 270.201 241.736C275.865 245 282.201 246.632 289.209 246.632Z" stroke="#4F6FB1" stroke-width="10" mask="url(#path-1-outside-1)"/>
<path d="M435.82 257H422.716L370.012 177.08V257H356.908V156.488H370.012L422.716 236.264V156.488H435.82V257Z" stroke="#4F6FB1" stroke-width="10" mask="url(#path-1-outside-1)"/>
<path d="M471.262 167.288V200.84H507.838V211.64H471.262V246.2H512.158V257H458.158V156.488H512.158V167.288H471.262Z" stroke="#4F6FB1" stroke-width="10" mask="url(#path-1-outside-1)"/>
<path d="M563.81 258.008C557.186 258.008 551.234 256.856 545.954 254.552C540.77 252.152 536.69 248.888 533.714 244.76C530.738 240.536 529.202 235.688 529.106 230.216H543.074C543.554 234.92 545.474 238.904 548.834 242.168C552.29 245.336 557.282 246.92 563.81 246.92C570.05 246.92 574.946 245.384 578.498 242.312C582.146 239.144 583.97 235.112 583.97 230.216C583.97 226.376 582.914 223.256 580.802 220.856C578.69 218.456 576.05 216.632 572.882 215.384C569.714 214.136 565.442 212.792 560.066 211.352C553.442 209.624 548.114 207.896 544.082 206.168C540.146 204.44 536.738 201.752 533.858 198.104C531.074 194.36 529.682 189.368 529.682 183.128C529.682 177.656 531.074 172.808 533.858 168.584C536.642 164.36 540.53 161.096 545.522 158.792C550.61 156.488 556.418 155.336 562.946 155.336C572.354 155.336 580.034 157.688 585.986 162.392C592.034 167.096 595.442 173.336 596.21 181.112H581.81C581.33 177.272 579.314 173.912 575.762 171.032C572.21 168.056 567.506 166.568 561.65 166.568C556.178 166.568 551.714 168.008 548.258 170.888C544.802 173.672 543.074 177.608 543.074 182.696C543.074 186.344 544.082 189.32 546.098 191.624C548.21 193.928 550.754 195.704 553.73 196.952C556.802 198.104 561.074 199.448 566.546 200.984C573.17 202.808 578.498 204.632 582.53 206.456C586.562 208.184 590.018 210.92 592.898 214.664C595.778 218.312 597.218 223.304 597.218 229.64C597.218 234.536 595.922 239.144 593.33 243.464C590.738 247.784 586.898 251.288 581.81 253.976C576.722 256.664 570.722 258.008 563.81 258.008Z" stroke="#4F6FB1" stroke-width="10" mask="url(#path-1-outside-1)"/>
<path d="M629.606 156.632V257H616.502V156.632H629.606Z" stroke="#4F6FB1" stroke-width="10" mask="url(#path-1-outside-1)"/>
<path d="M711.268 234.68H667.492L659.428 257H645.604L681.892 157.208H697.012L733.156 257H719.332L711.268 234.68ZM707.524 224.024L689.38 173.336L671.236 224.024H707.524Z" stroke="#4F6FB1" stroke-width="10" mask="url(#path-1-outside-1)"/>
</svg>
