<?xml version="1.0" standalone="no"?>
<!DOCTYPE svg PUBLIC "-//W3C//DTD SVG 20010904//EN"
 "http://www.w3.org/TR/2001/REC-SVG-20010904/DTD/svg10.dtd">
<svg version="1.0" xmlns="http://www.w3.org/2000/svg"
 width="754.000000pt" height="754.000000pt" viewBox="0 0 754.000000 754.000000"
 preserveAspectRatio="xMidYMid meet">
<metadata>
Created by potrace 1.11, written by Peter Selinger 2001-2013
</metadata>
<g transform="translate(0.000000,754.000000) scale(0.100000,-0.100000)"
fill="#000000" stroke="none">
<path d="M4715 5413 c-11 -2 -63 -19 -115 -38 -52 -18 -135 -48 -185 -66 -49
-17 -105 -38 -124 -45 l-34 -14 24 -28 c14 -15 34 -46 44 -69 11 -26 31 -50
51 -63 28 -16 34 -25 34 -55 0 -23 5 -35 14 -35 12 0 165 30 231 46 11 2 29 6
40 8 144 29 172 38 187 57 57 69 12 251 -73 295 -28 14 -54 16 -94 7z"/>
<path d="M4045 5209 c-26 -8 -63 -15 -224 -44 -131 -23 -324 -64 -329 -70 -4
-4 0 -10 8 -13 30 -10 79 -73 95 -122 17 -50 16 -124 0 -177 -7 -20 -5 -21 36
-12 23 6 46 12 50 15 5 3 84 27 176 54 92 27 210 63 262 79 52 17 95 30 96 28
1 -1 7 -45 13 -97 20 -158 55 -299 109 -435 97 -243 225 -421 477 -664 297
-286 320 -312 366 -407 137 -283 463 -559 780 -662 52 -17 167 -54 255 -83 88
-28 208 -74 268 -102 59 -27 110 -48 113 -44 6 6 6 124 0 167 -23 156 -38 248
-42 262 -3 10 -7 65 -8 124 -3 85 -1 107 11 111 21 8 120 -15 182 -43 175 -79
425 -334 601 -614 29 -47 59 -92 66 -100 7 -8 38 -63 69 -123 53 -100 73 -130
61 -89 -3 9 -8 33 -11 52 -31 190 -119 429 -225 610 -125 214 -337 427 -663
664 -285 208 -528 324 -877 421 -325 90 -456 137 -602 214 -182 96 -331 211
-494 381 -86 90 -220 255 -268 329 -28 44 -42 101 -25 101 5 0 9 -6 9 -13 0
-21 26 -51 38 -43 7 4 4 19 -10 46 -22 40 -38 52 -38 28 0 -9 -4 -8 -11 2 -8
11 -12 12 -16 3 -8 -20 -19 -15 -32 14 -10 21 -10 24 1 16 16 -12 43 -9 63 7
16 13 20 67 7 88 -16 25 -61 24 -87 -2 -27 -27 -37 -24 -29 9 7 27 -31 92 -72
124 -29 23 -93 27 -149 10z"/>
<path d="M3418 5064 c-27 -14 -58 -77 -58 -118 0 -23 2 -24 38 -14 20 5 44 16
53 24 22 20 55 17 77 -6 14 -16 19 -34 18 -73 -1 -49 -2 -52 -26 -49 -32 5
-40 13 -42 43 -2 41 2 59 11 59 13 0 41 -29 41 -43 0 -8 -4 -7 -12 1 -18 18
-28 14 -28 -12 0 -26 19 -39 40 -26 9 5 11 19 6 41 -8 42 -23 59 -52 59 -19 0
-24 -7 -30 -36 -8 -42 8 -104 33 -127 10 -8 30 -18 45 -22 73 -18 83 146 14
251 -36 56 -81 73 -128 48z"/>
<path d="M5820 4950 c-25 -4 -92 -22 -150 -40 -58 -17 -175 -52 -260 -76 -85
-25 -191 -57 -234 -71 l-79 -26 109 -31 109 -32 0 -37 c1 -21 -3 -41 -7 -43
-5 -3 -6 -20 -3 -37 4 -18 -3 -69 -14 -117 -10 -47 -22 -108 -26 -136 -5 -45
-4 -52 12 -56 23 -6 103 -2 110 6 8 7 -14 147 -33 215 -9 32 -13 69 -9 89 3
18 2 39 -4 46 -5 6 -9 21 -7 31 3 23 28 25 96 6 l45 -12 -1 -177 -1 -177 62
-60 c100 -98 207 -145 341 -151 169 -6 310 70 370 200 24 52 25 66 25 195 l-1
138 187 73 c104 41 208 83 233 94 l45 19 -50 13 c-27 8 -68 16 -90 20 -22 3
-42 7 -46 9 -3 2 -19 6 -35 9 -16 3 -165 33 -332 66 -166 33 -306 59 -310 59
-4 -1 -27 -5 -52 -9z"/>
<path d="M78 4003 c-2 -5 -4 -163 -3 -353 l0 -345 105 -1 c58 -1 107 2 110 6
3 5 5 43 4 86 l0 78 57 60 56 60 68 -134 c37 -74 71 -139 76 -145 11 -11 272
-17 267 -6 -3 6 -78 132 -109 181 -5 8 -40 66 -79 128 -38 62 -70 116 -70 121
0 7 62 74 203 218 l51 52 -145 0 -146 -1 -66 -76 c-36 -42 -84 -97 -106 -122
-22 -25 -41 -48 -41 -52 0 -5 -4 -8 -8 -8 -4 0 -8 53 -7 118 1 64 -1 123 -3
130 -5 13 -208 18 -214 5z"/>
<path d="M1054 3820 c-93 -13 -146 -51 -174 -124 -5 -14 -6 -26 -2 -27 4 0 14
-2 22 -4 8 -1 47 -6 86 -10 69 -6 72 -6 90 19 37 51 154 41 154 -14 0 -21 -44
-36 -183 -65 -105 -21 -155 -47 -173 -90 -39 -94 2 -177 102 -205 75 -21 196
2 245 46 16 14 18 13 31 -13 13 -27 15 -28 98 -28 80 0 85 1 81 20 -2 11 -5
85 -7 165 -1 80 -5 163 -9 185 -9 58 -42 105 -90 126 -46 21 -189 31 -271 19z
m176 -310 c0 -63 -46 -110 -109 -110 -56 0 -86 57 -47 89 12 10 123 49 144 50
7 1 12 -11 12 -29z"/>
<path d="M1825 3813 c-22 -7 -51 -25 -65 -38 -31 -30 -44 -32 -37 -6 10 39 -7
47 -90 45 -43 -1 -81 -3 -85 -3 -5 -1 -8 -115 -8 -255 l0 -253 97 1 98 1 1
158 c1 150 2 159 24 182 23 25 63 32 87 17 23 -15 29 -59 29 -208 l-1 -151 97
0 98 -1 1 82 c0 82 5 211 7 234 3 22 41 52 67 52 14 0 34 -9 45 -20 18 -18 20
-33 20 -183 l0 -163 100 -1 99 0 -1 188 c-2 205 -9 243 -53 289 -61 63 -204
59 -269 -8 l-26 -29 -41 39 c-22 21 -50 39 -62 39 -79 5 -97 4 -132 -8z"/>
<path d="M2845 3825 c-5 -2 -22 -6 -37 -9 -15 -4 -43 -20 -63 -37 -36 -32 -39
-31 -35 9 1 12 -2 22 -7 23 -49 7 -173 3 -175 -6 0 -5 -2 -165 -2 -355 l-2
-345 93 1 c52 1 96 4 99 7 4 3 6 58 6 122 1 106 2 114 17 101 79 -71 239 -50
300 40 85 124 43 373 -71 427 -33 15 -104 28 -123 22z m-9 -151 c37 -10 57
-62 52 -133 -5 -74 -29 -105 -79 -103 -52 1 -83 40 -86 109 -3 99 39 147 113
127z"/>
<path d="M3984 3820 c-148 -22 -211 -169 -110 -258 30 -26 95 -49 196 -67 65
-12 81 -18 90 -34 13 -26 -8 -51 -50 -60 -46 -10 -84 4 -98 34 -11 24 -13 25
-94 19 -114 -9 -113 -9 -110 -30 10 -51 72 -105 139 -121 54 -14 216 -10 269
5 88 26 145 117 123 196 -20 72 -93 115 -219 130 -85 9 -109 18 -116 39 -15
48 80 66 120 22 21 -22 28 -24 87 -18 35 3 74 6 87 6 32 1 28 27 -14 75 -24
28 -48 45 -77 53 -49 13 -164 18 -223 9z"/>
<path d="M3180 3622 c0 -239 14 -282 99 -318 70 -29 154 -14 217 39 39 33 41
33 41 5 1 -13 1 -28 2 -34 1 -8 30 -12 91 -11 l90 1 -2 255 -3 256 -96 0 -96
0 0 -147 c0 -93 -5 -158 -12 -177 -25 -60 -113 -63 -128 -4 -4 15 -7 94 -7
176 0 95 -4 147 -10 148 -6 1 -50 2 -99 3 l-87 1 0 -193z"/>
<path d="M80 2804 l0 -354 110 0 110 0 0 354 -1 354 -109 0 -110 0 0 -354z"/>
<path d="M1439 3137 c-1 -12 -1 -65 -1 -118 l0 -97 -48 25 c-117 61 -251 10
-299 -113 -17 -44 -21 -169 -6 -219 36 -120 100 -175 201 -175 56 0 103 19
138 56 l26 29 0 -38 0 -38 92 3 93 3 0 335 c1 184 -1 343 -3 352 -4 16 -17 18
-98 17 -89 -1 -94 -2 -95 -22z m-50 -322 c41 -21 55 -77 42 -171 -2 -23 -51
-61 -73 -59 -13 1 -29 3 -36 4 -24 2 -52 64 -52 114 0 102 49 149 119 112z"/>
<path d="M4332 3091 l3 -65 98 -1 97 0 0 68 0 67 -100 -1 -101 -2 3 -66z"/>
<path d="M757 2969 c-40 -9 -82 -33 -108 -61 -22 -25 -26 -23 -27 13 0 17 -3
33 -6 36 -4 4 -94 7 -153 4 -21 -1 -21 -2 -20 -256 l0 -255 97 0 96 0 0 154
c1 127 4 159 18 180 29 45 108 47 122 3 4 -12 8 -92 9 -177 l0 -155 100 -3
100 -3 -2 191 c-1 105 -7 206 -13 224 -15 47 -65 94 -108 102 -62 11 -66 11
-105 3z"/>
<path d="M1953 2969 c-84 -15 -163 -73 -200 -148 -13 -26 -18 -59 -18 -116 0
-69 4 -86 27 -127 60 -101 153 -145 290 -135 91 6 146 30 196 86 52 58 66 97
66 181 -1 91 -22 139 -89 198 -62 55 -170 79 -272 61z m132 -152 c58 -58 42
-209 -25 -237 -42 -17 -96 2 -117 43 -32 62 -13 178 34 207 24 14 88 6 108
-13z"/>
<path d="M2716 2965 c-41 -11 -94 -45 -104 -67 -9 -21 -23 -4 -18 22 2 16 0
33 -6 36 -8 5 -93 8 -160 5 -17 -1 -18 -20 -18 -256 l0 -255 98 0 99 0 1 157
c1 137 3 160 20 182 24 33 70 39 101 14 22 -18 23 -25 24 -186 l1 -167 99 0
98 0 -3 208 c-3 195 -4 209 -26 243 -38 62 -117 86 -206 64z"/>
<path d="M3265 2969 c-61 -11 -109 -35 -147 -73 -56 -56 -72 -99 -72 -191 1
-89 18 -135 73 -192 49 -51 84 -65 190 -70 116 -7 193 12 246 59 41 36 71 85
52 85 -7 0 -49 3 -93 7 -68 6 -84 4 -98 -9 -57 -57 -156 -25 -171 55 -4 18 4
19 158 19 89 0 178 0 198 0 l35 1 -3 48 c-10 138 -75 225 -185 252 -58 13
-134 17 -183 9z m119 -120 c23 -11 60 -78 49 -89 -2 -3 -47 -5 -98 -6 -89 0
-93 1 -89 20 13 71 74 104 138 75z"/>
<path d="M3883 2969 c-112 -14 -174 -73 -169 -158 7 -90 58 -133 186 -156 8
-1 33 -5 55 -9 69 -12 95 -26 95 -52 0 -29 -27 -44 -80 -44 -34 0 -48 6 -71
31 -27 29 -30 30 -91 24 -83 -9 -109 -13 -115 -19 -12 -12 45 -90 82 -111 60
-34 175 -46 284 -29 127 20 198 122 161 231 -19 54 -110 96 -240 110 -63 7
-96 24 -92 48 5 27 20 35 64 35 26 0 44 -7 61 -24 22 -22 31 -24 85 -20 33 3
68 7 78 9 11 2 22 4 27 4 38 4 -55 105 -110 120 -50 14 -146 18 -210 10z"/>
<path d="M4827 2968 c-82 -11 -137 -43 -164 -97 -13 -25 -21 -46 -19 -48 5 -5
40 -11 115 -17 62 -6 66 -5 87 21 18 23 29 28 71 28 54 0 83 -16 83 -45 0 -18
-36 -35 -97 -46 -15 -3 -36 -7 -45 -10 -9 -3 -26 -7 -39 -9 -139 -27 -189 -70
-189 -163 0 -54 32 -100 87 -124 38 -17 61 -20 123 -16 65 4 84 9 123 35 l45
31 12 -29 c12 -29 12 -29 102 -29 82 0 89 2 82 18 -4 9 -11 98 -14 197 -4 103
-12 193 -19 211 -14 36 -51 66 -101 82 -46 14 -170 20 -243 10z m173 -308 c0
-44 -19 -77 -55 -95 -60 -28 -111 -14 -119 32 -6 27 32 57 84 68 19 4 42 11
50 16 28 16 40 10 40 -21z"/>
<path d="M4347 2962 c-15 -3 -17 -28 -17 -258 l0 -254 100 0 99 0 0 255 c0
233 -1 255 -17 256 -83 3 -152 3 -165 1z"/>
</g>
</svg>
